<?xml version="1.0" encoding="UTF-8"?>
<svg width="29px" height="22px" viewBox="0 0 29 22" version="1.1" xmlns="http://www.w3.org/2000/svg" xmlns:xlink="http://www.w3.org/1999/xlink">
    <!-- Generator: Sketch 50.2 (55047) - http://www.bohemiancoding.com/sketch -->
    <title>Page 1 Copy</title>
    <desc>Created with Sketch.</desc>
    <defs></defs>
    <g id="Symbols" stroke="none" stroke-width="1" fill="none" fill-rule="evenodd">
        <g id="Eng_eye_icons" transform="translate(1.000000, 1.000000)" stroke="#FFFFFF" stroke-width="2">
            <g id="Page-1-Copy">
                <path d="M0,8 C0.5706,3.50830555 6.381,0.0517406772 13.419,0.00054415982 C20.457,-0.0506523576 26.3457,3.51710495 27,8" id="Stroke-1"></path>
                <path d="M0,12 C0.6534,16.4828951 6.5439,20.0506524 13.5828,19.9994558 C20.6199,19.9482593 26.4303,16.4924944 27,12" id="Stroke-3"></path>
                <path d="M18.9997901,9.95028749 C19.0272196,13.2638859 16.3631225,15.9715054 13.0501447,15.9997902 C9.73630958,16.0272178 7.02763943,13.3624538 7.00020986,10.0497126 C6.97278029,6.73525709 9.63773456,4.02763752 12.9507125,4.00020991 C16.2636904,3.9727823 18.9732177,6.63668911 18.9997901,9.95028749 Z" id="Stroke-5"></path>
                <path d="M11.0000734,9 C10.9906651,7.90380165 11.8871376,7.00859504 13,7" id="Stroke-7"></path>
            </g>
        </g>
    </g>
</svg>