<?xml version="1.0" encoding="UTF-8"?>
<svg width="22px" height="32px" viewBox="0 0 22 32" version="1.1" xmlns="http://www.w3.org/2000/svg" xmlns:xlink="http://www.w3.org/1999/xlink">
    <!-- Generator: Sketch 51.2 (57519) - http://www.bohemiancoding.com/sketch -->
    <title>оплата</title>
    <desc>Created with Sketch.</desc>
    <defs></defs>
    <g id="Главная" stroke="none" stroke-width="1" fill="none" fill-rule="evenodd">
        <g id="PUSSY-HEADER" transform="translate(-68.000000, -450.000000)" stroke="#000000" stroke-width="2">
            <g id="оплата" transform="translate(69.000000, 451.000000)">
                <path d="M0,25 L0,16" id="оплата_stroke_8"></path>
                <path d="M0,16.008 C0,11.178 3.439,7.139 8,6.209 L3.998,0 L11,0" id="оплата_stroke_7"></path>
                <path d="M0,25 C0,27.762 2.238,30 5,30 L15,30 C17.762,30 20,27.762 20,25" id="оплата_stroke_6"></path>
                <path d="M20,25 L20,16" id="оплата_stroke_5"></path>
                <path d="M16.002,0 L12,6.209 C16.56,7.139 20,11.178 20,16.008" id="оплата_stroke_4"></path>
                <path d="M8,20 C8,21.104 8.896,22 10,22 C11.104,22 12,21.104 12,20 C12,18.896 11.104,18 10,18 C8.896,18 8,17.104 8,16 C8,14.896 8.896,14 10,14 C11.104,14 12,14.896 12,16" id="оплата_stroke_3"></path>
                <path d="M10,10 L10,12.018" id="оплата_stroke_2"></path>
                <path d="M10,24 L10,26.016" id="оплата_stroke_1"></path>
            </g>
        </g>
    </g>
</svg>