<?xml version="1.0" encoding="UTF-8"?>
<svg width="34px" height="32px" viewBox="0 0 34 32" version="1.1" xmlns="http://www.w3.org/2000/svg" xmlns:xlink="http://www.w3.org/1999/xlink">
    <!-- Generator: Sketch 51.2 (57519) - http://www.bohemiancoding.com/sketch -->
    <title>Group 9</title>
    <desc>Created with Sketch.</desc>
    <defs></defs>
    <g id="Главная" stroke="none" stroke-width="1" fill="none" fill-rule="evenodd">
        <g id="PUSSY-HEADER" transform="translate(-63.000000, -589.000000)" stroke="#000000" stroke-width="2">
            <g id="Приведи-друга" transform="translate(65.000000, 590.000000)">
                <g id="Group-9">
                    <path d="M19,8.001 C19,12.418 15.417,16 11.001,16 C6.582,16 3,12.418 3,8.001 C3,3.581 6.582,0 11.001,0 C15.417,0 19,3.581 19,8.001 Z" id="Stroke-1"></path>
                    <path d="M22,4 C25.313,4 28,6.685 28,10 C28,13.313 25.313,16 22,16" id="Stroke-3"></path>
                    <polyline id="Stroke-5" points="25 20 29 21.025 30 28.025 25 28.025"></polyline>
                    <polyline id="Stroke-7" points="16.867 20 20.973 21.332 22 30 0 30 1.027 21.332 5.134 20"></polyline>
                </g>
            </g>
        </g>
    </g>
</svg>