<?xml version="1.0" encoding="UTF-8"?>
<svg width="201px" height="70px" viewBox="0 0 201 70" version="1.1" xmlns="http://www.w3.org/2000/svg" xmlns:xlink="http://www.w3.org/1999/xlink">
    <!-- Generator: Sketch 52.2 (67145) - http://www.bohemiancoding.com/sketch -->
    <title>logo-inner</title>
    <desc>Created with Sketch.</desc>
    <defs>
        <path d="M0.16,46.08 L0.16,44.624 C2.064,44.368 2.736,41.92 2.736,37.328 L2.736,36.08 L1.68,36.08 L1.68,34.704 L8.32,34.704 C9.04,34.704 9.344,35.008 9.344,35.728 L9.344,44.272 C9.344,44.496 9.472,44.624 9.696,44.624 L10.384,44.624 L10.384,46 L8.768,46 C8.048,46 7.744,45.696 7.744,44.976 L7.744,36.432 C7.744,36.192 7.616,36.08 7.392,36.08 L4.256,36.08 L4.256,37.344 C4.256,42.752 3.28,45.904 0.16,46.08 Z M12.272,46 L12.272,39.584 C12.272,39.344 12.144,39.232 11.936,39.232 L11.296,39.232 L11.296,37.904 L12.72,37.904 C13.44,37.904 13.744,38.192 13.744,38.912 L13.744,42.768 C13.744,43.2 13.696,43.808 13.68,43.888 L13.712,43.888 C13.776,43.76 14.192,43.136 14.464,42.768 L17.952,37.904 L19.488,37.904 L19.488,44.32 C19.488,44.56 19.616,44.672 19.824,44.672 L20.464,44.672 L20.464,46 L19.04,46 C18.32,46 18.016,45.696 18.016,44.976 L18.016,41.136 C18.016,40.736 18.064,40.128 18.08,40 L18.048,40 C17.984,40.144 17.568,40.768 17.296,41.136 L13.808,46 L12.272,46 Z M24.528,43.184 C22.848,43.184 21.936,42.32 21.936,40.752 L21.936,39.584 C21.936,39.328 21.824,39.232 21.568,39.232 L20.992,39.232 L20.992,37.904 L22.448,37.904 C23.232,37.904 23.456,38.304 23.456,38.928 L23.456,40.32 C23.456,41.12 23.712,41.84 24.992,41.84 C25.84,41.84 26.448,41.504 26.8,41.264 L26.8,37.904 L28.352,37.904 L28.352,46 L26.8,46 L26.8,43.072 C26.8,42.832 26.816,42.56 26.816,42.56 L26.8,42.56 C26.24,42.928 25.392,43.184 24.528,43.184 Z M30.736,46 L30.736,39.584 C30.736,39.344 30.608,39.232 30.384,39.232 L29.728,39.232 L29.728,37.904 L31.264,37.904 C31.984,37.904 32.288,38.208 32.288,38.928 L32.288,41.216 L36.384,41.216 L36.384,37.904 L37.936,37.904 L37.936,44.32 C37.936,44.56 38.064,44.672 38.288,44.672 L38.928,44.672 L38.928,46 L37.408,46 C36.688,46 36.384,45.696 36.384,44.976 L36.384,42.512 L32.288,42.512 L32.288,46 L30.736,46 Z M39.744,43.792 C39.744,41.072 43.28,40.96 44.64,40.96 L44.992,40.96 L44.992,40.848 C44.992,39.456 44.448,38.944 43.2,38.944 C42.816,38.944 41.872,39.04 41.872,39.568 L41.872,40.032 L40.4,40.032 L40.4,39.216 C40.4,37.92 42.432,37.712 43.168,37.712 C45.84,37.712 46.544,39.072 46.544,40.88 L46.544,44.32 C46.544,44.56 46.672,44.672 46.896,44.672 L47.552,44.672 L47.552,46 L46.08,46 C45.36,46 45.088,45.648 45.088,45.072 C45.088,44.784 45.104,44.592 45.104,44.592 L45.072,44.592 C45.088,44.592 44.384,46.192 42.464,46.192 C41.056,46.192 39.744,45.344 39.744,43.792 Z M41.296,43.648 C41.296,44.304 41.808,44.96 42.816,44.96 C44.16,44.96 44.992,43.584 44.992,42.384 L44.992,42.08 L44.576,42.08 C43.408,42.08 41.296,42.192 41.296,43.648 Z M48.112,46 L48.112,44.672 L48.368,44.672 C48.768,44.672 48.944,44.608 49.12,44.352 L50.032,43.088 C50.144,42.928 50.272,42.784 50.448,42.672 L50.448,42.64 C49.424,42.4 48.656,41.632 48.656,40.368 C48.656,38.88 49.792,37.904 51.376,37.904 L55.792,37.904 L55.792,39.232 L54.784,39.232 L54.784,46 L53.232,46 L53.232,43.056 L52.336,43.056 C51.888,43.056 51.776,43.152 51.472,43.6 L50.288,45.248 C49.808,45.904 49.632,46 48.848,46 L48.112,46 Z M51.872,41.936 L53.232,41.936 L53.232,38.976 L51.824,38.976 C50.784,38.976 50.208,39.568 50.208,40.448 C50.208,41.36 50.88,41.936 51.872,41.936 Z M60.976,41.952 C60.976,39.568 62.72,37.712 65.328,37.712 C66.304,37.712 68.24,38.112 68.24,39.488 L68.24,40.32 L66.832,40.32 L66.832,39.872 C66.832,39.296 65.904,39.04 65.328,39.04 C63.744,39.04 62.544,40.224 62.544,41.936 C62.544,43.776 63.888,44.816 65.408,44.816 C66.928,44.816 67.92,43.696 67.92,43.696 L68.576,44.8 C68.576,44.8 67.44,46.192 65.296,46.192 C62.752,46.192 60.976,44.384 60.976,41.952 Z M72.352,46 L72.352,39.232 L70.784,39.232 C70.56,39.232 70.432,39.36 70.432,39.584 L70.432,40.128 L69.152,40.128 L69.152,38.896 C69.152,38.176 69.456,37.904 70.176,37.904 L76.064,37.904 C76.784,37.904 77.088,38.176 77.088,38.896 L77.088,40.128 L75.808,40.128 L75.808,39.584 C75.808,39.36 75.68,39.232 75.456,39.232 L73.888,39.232 L73.888,46 L72.352,46 Z M79.328,49.36 C78.128,49.36 77.424,48.56 77.424,48.56 L78.064,47.44 C78.08,47.488 78.576,48.016 79.248,48.016 C79.872,48.016 80.368,47.568 80.672,46.848 L81.04,45.968 L78.272,39.552 C78.16,39.296 78.032,39.232 77.776,39.232 L77.568,39.232 L77.568,37.904 L78.48,37.904 C79.136,37.904 79.392,38.08 79.648,38.72 L81.472,43.28 C81.632,43.696 81.76,44.256 81.76,44.256 L81.792,44.256 C81.792,44.256 81.92,43.696 82.064,43.28 L83.76,38.72 C83.984,38.08 84.272,37.904 84.928,37.904 L85.856,37.904 L85.856,39.232 L85.648,39.232 C85.392,39.232 85.248,39.296 85.136,39.552 L81.952,47.456 C81.44,48.704 80.464,49.36 79.328,49.36 Z M85.872,45.712 C85.872,45.024 86.144,44.704 86.848,44.704 L86.976,44.704 C88.272,43.2 88.32,40.784 88.32,39.6 L88.32,39.232 L87.328,39.232 L87.328,37.904 L92.688,37.904 C93.408,37.904 93.712,38.208 93.712,38.928 L93.712,44.704 L93.968,44.704 C94.672,44.704 94.944,45.024 94.944,45.712 L94.944,47.92 L93.52,47.92 L93.52,46.352 C93.52,46.128 93.392,46 93.184,46 L87.632,46 C87.424,46 87.296,46.128 87.296,46.352 L87.296,47.92 L85.872,47.92 L85.872,45.712 Z M88.544,44.704 L92.16,44.704 L92.16,39.584 C92.16,39.344 92.032,39.232 91.808,39.232 L89.792,39.232 L89.792,39.584 C89.792,40.704 89.76,43.168 88.544,44.704 Z M96.496,46 L96.496,39.584 C96.496,39.344 96.368,39.232 96.16,39.232 L95.52,39.232 L95.52,37.904 L96.944,37.904 C97.664,37.904 97.968,38.192 97.968,38.912 L97.968,42.768 C97.968,43.2 97.92,43.808 97.904,43.888 L97.936,43.888 C98,43.76 98.416,43.136 98.688,42.768 L102.176,37.904 L103.712,37.904 L103.712,44.32 C103.712,44.56 103.84,44.672 104.048,44.672 L104.688,44.672 L104.688,46 L103.264,46 C102.544,46 102.24,45.696 102.24,44.976 L102.24,41.136 C102.24,40.736 102.288,40.128 102.304,40 L102.272,40 C102.208,40.144 101.792,40.768 101.52,41.136 L98.032,46 L96.496,46 Z M105.408,46 L105.408,44.672 L105.664,44.672 C106.064,44.672 106.24,44.608 106.416,44.352 L107.328,43.088 C107.44,42.928 107.568,42.784 107.744,42.672 L107.744,42.64 C106.72,42.4 105.952,41.632 105.952,40.368 C105.952,38.88 107.088,37.904 108.672,37.904 L113.088,37.904 L113.088,39.232 L112.08,39.232 L112.08,46 L110.528,46 L110.528,43.056 L109.632,43.056 C109.184,43.056 109.072,43.152 108.768,43.6 L107.584,45.248 C107.104,45.904 106.928,46 106.144,46 L105.408,46 Z M109.168,41.936 L110.528,41.936 L110.528,38.976 L109.12,38.976 C108.08,38.976 107.504,39.568 107.504,40.448 C107.504,41.36 108.176,41.936 109.168,41.936 Z" id="path-1"></path>
    </defs>
    <g id="Page-1" stroke="none" stroke-width="1" fill="none" fill-rule="evenodd">
        <g id="logo-inner">
            <g id="Group-3" transform="translate(87.731035, 11.157169)" fill="#000000">
                <g id="Group">
                    <path d="M61.0218152,21.9508192 L61.0218152,6.57598382 L57.2218981,6.57598382 L57.2218981,14.726499 L49.6220641,14.726499 L49.6220641,6.57598382 L42.5783154,6.57598382 L43.0417199,10.0955245 L45.7294661,10.0955245 L45.7294661,27.1375107 L49.5293831,27.1375107 L49.5293831,18.5238981 L57.1292172,18.5238981 L57.1292172,22.6917752 C57.1292172,26.0260768 58.334069,27.1375107 60.3730488,27.1375107 L62.6900714,27.1375107 L63.5241996,23.6179701 L62.0413051,23.6179701 C61.207177,23.6179701 61.0218152,22.9696336 61.0218152,21.9508192 Z" id="Shape"></path>
                    <path d="M40.3539737,22.7843946 L38.5930366,6.57598382 L35.0711622,6.57598382 L30.0663934,17.7829422 L24.690901,6.57598382 L21.2617076,6.57598382 L19.1300468,27.1375107 L23.0226448,27.1375107 L24.3201774,13.5224456 L28.4908181,22.2286777 L31.456607,22.2286777 L35.3492049,13.5224456 L36.3686949,23.1548726 C36.6467376,25.9334573 37.2955039,27.1375107 39.7052074,27.1375107 L41.7441873,27.1375107 L42.4856345,23.988448 L41.1881018,23.988448 C40.7246973,23.988448 40.4466546,23.803209 40.3539737,22.7843946 Z" id="Shape"></path>
                    <path d="M70.6606291,20.8393853 L70.6606291,18.4312786 L77.2409733,18.4312786 L77.9824205,14.8191185 L70.5679482,14.8191185 L70.5679482,10.2807634 L79.8360385,10.2807634 L79.2799531,6.48336433 L64.5436895,6.48336433 L63.8949232,10.2807634 L66.7680312,10.2807634 L66.7680312,21.5803413 C66.7680312,26.5817938 70.4752673,27.0448912 71.3093954,27.0448912 L79.4653149,27.0448912 L80.2994431,23.2474921 L72.699609,23.2474921 C71.4947572,23.3401116 70.6606291,23.1548726 70.6606291,20.8393853 Z" id="Shape"></path>
                    <path d="M101.986774,23.6179701 C100.967285,23.6179701 100.874604,22.8770141 100.874604,21.9508192 L100.874604,6.57598382 L97.5380911,6.57598382 L88.4553626,20.2836684 L88.4553626,6.57598382 L81.4116139,6.57598382 L81.9676993,10.0955245 L84.6554455,10.0955245 L84.6554455,27.1375107 L87.991958,27.1375107 L97.0746866,13.4298261 L97.0746866,22.6917752 C97.0746866,26.0260768 98.2795383,27.1375107 100.318518,27.1375107 L102.635541,27.1375107 L103.469669,23.6179701 L101.986774,23.6179701 Z" id="Shape"></path>
                    <path d="M10.3802612,18.1143389 L6.76570595,9.96382369 C5.74621601,7.74095592 4.81940697,7 3.15115071,7 L1.39021355,7 L0,10.5195406 L0.648766324,10.5195406 C2.40970349,10.5195406 2.96578891,11.4457355 3.61455523,12.8350279 L8.61932401,22.8379329 C8.1559195,23.6715083 7.59983408,24.1346057 6.76570595,24.1346057 C6.02425872,24.1346057 5.09744969,23.8567473 4.35600246,23.2084108 L2.59506529,26.264854 C3.70723613,27.2836684 5.19013059,27.8393853 6.76570595,27.8393853 C8.99004763,27.8393853 10.565623,27.0984294 11.9558365,23.6715083 L18.5361807,7.09261949 L14.4582209,7.09261949 L10.3802612,18.1143389 Z" id="Shape"></path>
                    <path d="M92.811365,5.64978892 C95.3137494,5.64978892 98.1868574,4.35311605 98.3722192,0.370477962 L94.3869404,0.370477962 C94.3869404,2.03762879 93.4601313,2.40810675 92.7186841,2.40810675 C91.9772369,2.40810675 91.1431088,2.03762879 91.0504279,0.370477962 L87.065149,0.370477962 C87.4358726,4.44573554 90.3089806,5.64978892 92.811365,5.64978892 Z" id="Shape"></path>
                    <g id="Личная-студия">
                        <use xlink:href="#path-1"></use>
                        <use xlink:href="#path-1"></use>
                    </g>
                </g>
            </g>
            <g id="Group-5" fill-rule="nonzero">
                <g id="Group">
                    <path d="M65.7107605,47.6990376 C62.1888862,56.2200307 55.5158611,62.4255365 47.6379843,65.7598382 L49.3062406,69.8350958 C58.2036073,66.1303162 65.8034414,58.9986154 69.7887202,49.3661884 L65.7107605,47.6990376 Z M53.3842003,42.6049656 L49.3062406,40.9378148 C47.6379843,44.9204529 44.5795145,47.8842765 40.8722784,49.3661884 L42.5405346,53.441446 C47.3599416,51.4038172 51.3452205,47.6990376 53.3842003,42.6049656 Z" id="Shape" fill="#46577D"></path>
                    <path d="M4.07795975,47.6064181 L0,49.3661884 C3.70723613,58.2576595 10.8436657,65.8524577 20.4824796,69.8350958 L22.1507359,65.7598382 C13.6240928,62.1476781 7.32179137,55.5716943 4.07795975,47.6064181 Z M61.6328007,45.9392672 C58.5743309,53.256207 52.8281149,58.7207569 45.9697281,61.5919611 L47.6379843,65.6672187 C55.5158611,62.4255365 62.1888862,56.1274112 65.7107605,47.6064181 L61.6328007,45.9392672 Z M20.4824796,40.8451953 L16.4045199,42.6049656 C18.3508189,47.3285596 22.1507359,51.3111977 27.2481856,53.441446 L28.9164418,49.3661884 C24.931163,47.6990376 22.058055,44.5499749 20.4824796,40.8451953 Z M45.2282808,39.1780444 C44.0234291,42.0492487 41.7990874,44.0868774 39.2040221,45.1983113 L40.8722784,49.2735689 C44.5795145,47.6990376 47.6379843,44.8278334 49.3062406,40.8451953 L45.2282808,39.1780444 Z" id="Shape" fill="#D75E66"></path>
                    <path d="M8.1559195,45.9392672 L4.07795975,47.6064181 C7.32179137,55.5716943 13.6240928,62.1476781 22.1507359,65.6672187 L23.8189922,61.5919611 C16.4972008,58.5355179 11.0290275,52.7931095 8.1559195,45.9392672 Z M24.5604394,39.1780444 L20.4824796,40.8451953 C22.058055,44.5499749 24.931163,47.6064181 28.9164418,49.2735689 L30.5846981,45.1983113 C27.804271,43.994258 25.6726102,41.7713902 24.5604394,39.1780444 Z" id="Shape" fill="#704B4C"></path>
                    <path d="M12.3265601,44.2721164 C9.91685666,38.4370885 9.73149485,31.7684852 12.3265601,25.5629794 L8.2486004,23.8958285 C11.3070702,16.5788888 17.0532862,11.1143389 23.9116731,8.24313465 L22.2434168,4.16787707 C14.2728591,7.40955923 7.59983408,13.6150651 4.07795975,22.1360582 C0.55608542,30.6570513 0.83412813,39.7337614 4.07795975,47.6064181 L8.1559195,45.9392672 C11.0290275,52.7931095 16.4045199,58.5355179 23.8189922,61.5919611 L25.4872484,57.5167036 C19.2776279,54.9233578 14.7362636,50.0145248 12.3265601,44.2721164 Z M28.6383991,37.5108936 C27.9896328,35.9363623 27.8969519,34.0839725 28.6383991,32.3242022 L24.5604394,30.6570513 C25.7652911,27.7858471 27.9896328,25.7482183 30.5846981,24.6367845 L28.9164418,20.5615269 C25.2092057,22.1360582 22.1507359,25.0072624 20.4824796,28.9899005 C18.8142234,32.9725386 18.9995852,37.2330351 20.4824796,40.9378148 L24.5604394,39.2706639 C25.6726102,41.9566292 27.7115901,44.1794969 30.5846981,45.2909308 L32.2529544,41.2156732 C30.5846981,40.3820978 29.3798464,39.085425 28.6383991,37.5108936 Z" id="Shape" fill="#B5D059"></path>
                    <path d="M23.8189922,8.24313465 C16.9606053,11.1143389 11.2143893,16.4862693 8.1559195,23.8958285 L12.2338792,25.5629794 C14.8289445,19.3574735 19.7410324,14.726499 25.4872484,12.3183922 L23.8189922,8.24313465 Z M30.677379,24.544165 C27.9896328,25.6555988 25.7652911,27.6932276 24.6531203,30.5644318 L28.73108,32.2315827 C29.4725273,30.4718123 30.7700599,29.267759 32.3456353,28.6194225 L30.677379,24.544165 Z" id="Shape" fill="#506146"></path>
                    <path d="M44.3014718,12.3183922 L42.6332155,16.3936498 C47.7306652,18.5238981 51.5305823,22.5065362 53.4768812,27.2301302 L57.554841,25.5629794 C55.1451375,19.7279515 50.5110923,14.911738 44.3014718,12.3183922 Z M37.443085,28.712042 L35.7748287,32.7872996 C36.3309141,33.0651581 36.7943186,33.5282555 36.9796804,33.991353 L41.0576402,32.3242022 C40.5015548,30.7496708 39.2040221,29.3603785 37.443085,28.712042 Z" id="Shape" fill="#6D5664"></path>
                    <path d="M69.7887202,20.4689074 C66.0814841,11.4848168 59.0377354,3.98263809 49.3989215,0 L47.7306652,4.07525758 C56.2573083,7.59479821 62.4669289,14.2634015 65.8034414,22.1360582 C69.047273,30.0087149 69.3253157,39.1780444 65.8034414,47.6064181 L69.8814011,49.2735689 C73.7739991,39.7337614 73.4959564,29.3603785 69.7887202,20.4689074 Z M53.3842003,27.2301302 C51.4379014,22.5065362 47.6379843,18.5238981 42.5405346,16.3936498 L40.8722784,20.4689074 C44.8575572,22.1360582 47.8233461,25.1925014 49.3062406,28.897281 C50.8818159,32.6020606 50.9744969,36.8625572 49.3062406,40.8451953 L53.3842003,42.5123461 C51.2525396,47.6064181 47.2672607,51.4038172 42.5405346,53.3488265 L44.2087909,57.4240841 C50.0476878,55.0159773 54.8670948,50.3850028 57.4621601,44.1794969 C60.0572254,37.9739911 59.8718636,31.2127683 57.4621601,25.4703599 L53.3842003,27.2301302 Z M37.0723613,33.991353 C37.2577232,34.5470699 37.3504041,35.1954064 37.0723613,35.7511233 C36.7943186,36.3068402 36.3309141,36.7699377 35.8675096,36.9551767 L37.5357659,41.0304343 C39.1113412,40.3820978 40.5015548,39.085425 41.1503211,37.4182741 C41.8917683,35.6585038 41.7990874,33.8987335 41.1503211,32.2315827 L37.0723613,33.991353 Z" id="Shape" fill="#70B2E2"></path>
                    <path d="M45.9697281,8.15051516 C38.6479367,5.09407197 30.677379,5.37193044 23.8189922,8.15051516 L25.4872484,12.2257727 C19.7410324,14.6338795 14.8289445,19.264854 12.2338792,25.4703599 L16.311839,27.1375107 C18.4434998,22.0434387 22.4287786,18.2460396 27.1555047,16.3010303 C31.8822308,14.356021 37.3504041,14.170782 42.5405346,16.3010303 L44.2087909,12.2257727 C50.4184114,14.8191185 55.0524566,19.7279515 57.4621601,25.4703599 L61.5401198,23.803209 C58.7596927,17.0419862 53.3842003,11.2069583 45.9697281,8.15051516 Z M39.2040221,24.544165 C36.3309141,23.3401116 33.2724443,23.4327311 30.677379,24.544165 L32.3456353,28.6194225 C30.7700599,29.267759 29.3798464,30.5644318 28.73108,32.2315827 L32.8090398,33.8987335 C33.0870825,33.3430166 33.550487,32.8799191 34.0138915,32.6946801 C34.569977,32.5094411 35.2187433,32.4168216 35.7748287,32.6946801 L37.443085,28.6194225 C39.2040221,29.3603785 40.4088739,30.6570513 41.0576402,32.2315827 L45.1355999,30.5644318 C44.11611,27.9710861 41.9844492,25.7482183 39.2040221,24.544165 Z" id="Shape" fill="#F4C644"></path>
                </g>
            </g>
        </g>
    </g>
</svg>