<?xml version="1.0" encoding="UTF-8"?>
<svg width="274px" height="100px" viewBox="0 0 274 100" version="1.1" xmlns="http://www.w3.org/2000/svg" xmlns:xlink="http://www.w3.org/1999/xlink">
    <!-- Generator: Sketch 50.2 (55047) - http://www.bohemiancoding.com/sketch -->
    <title>umney_logo_личная студия-44</title>
    <desc>Created with Sketch.</desc>
    <defs></defs>
    <g id="Главная" stroke="none" stroke-width="1" fill="none" fill-rule="evenodd">
        <g id="Вход" transform="translate(-100.000000, -44.000000)">
            <g id="umney_logo_личная-студия-44" transform="translate(100.000000, 44.000000)">
                <g id="TEXT">
                    <g id="Group">
                        <g transform="translate(125.330050, 15.938813)" fill="#FFFFFF" id="Group-3">
                            <g>
                                <path d="M87.1740217,31.3583132 L87.1740217,9.3942626 L81.7455688,9.3942626 L81.7455688,21.0378557 L70.8886629,21.0378557 L70.8886629,9.3942626 L60.8261648,9.3942626 L61.4881713,14.4221778 L65.3278087,14.4221778 L65.3278087,38.7678724 L70.7562616,38.7678724 L70.7562616,26.4627115 L81.6131675,26.4627115 L81.6131675,32.4168216 C81.6131675,37.1801097 83.3343842,38.7678724 86.2472126,38.7678724 L89.5572449,38.7678724 L90.7488565,33.7399572 L88.6304359,33.7399572 C87.4388242,33.7399572 87.1740217,32.8137623 87.1740217,31.3583132 Z" id="Shape" fill-rule="nonzero"></path>
                                <path d="M57.6485339,32.5491352 L55.1329094,9.3942626 L50.1016603,9.3942626 L42.9519906,25.4042031 L35.2727158,9.3942626 L30.373868,9.3942626 L27.3286383,38.7678724 L32.8894925,38.7678724 L34.7431106,19.3177794 L40.7011687,31.7552539 L44.93801,31.7552539 L50.4988642,19.3177794 L51.9552784,33.0783894 C52.3524823,37.0477962 53.2792913,38.7678724 56.7217248,38.7678724 L59.6345532,38.7678724 L60.6937636,34.2692115 L58.8401455,34.2692115 C58.178139,34.2692115 57.7809352,34.0045843 57.6485339,32.5491352 Z" id="Shape" fill-rule="nonzero"></path>
                                <path d="M100.943756,29.7705505 L100.943756,26.330398 L110.344248,26.330398 L111.403458,21.1701692 L100.811355,21.1701692 L100.811355,14.6868049 L114.051484,14.6868049 L113.257076,9.26194904 L92.2052707,9.26194904 L91.2784617,14.6868049 L95.3829017,14.6868049 L95.3829017,30.829059 C95.3829017,37.9739911 100.678953,38.6355589 101.870565,38.6355589 L113.521878,38.6355589 L114.71349,33.210703 L103.856584,33.210703 C102.135367,33.3430166 100.943756,33.0783894 100.943756,29.7705505 Z" id="Shape" fill-rule="nonzero"></path>
                                <path d="M145.695392,33.7399572 C144.238978,33.7399572 144.106577,32.6814488 144.106577,31.3583132 L144.106577,9.3942626 L139.34013,9.3942626 L126.364804,28.9766691 L126.364804,9.3942626 L116.302306,9.3942626 L117.096713,14.4221778 L120.936351,14.4221778 L120.936351,38.7678724 L125.702797,38.7678724 L138.678124,19.1854659 L138.678124,32.4168216 C138.678124,37.1801097 140.39934,38.7678724 143.312169,38.7678724 L146.622201,38.7678724 L147.813813,33.7399572 L145.695392,33.7399572 Z" id="Shape" fill-rule="nonzero"></path>
                                <path d="M14.882917,25.2718895 L9.71926671,13.6282964 C8.26285251,10.4527711 6.93883961,9.3942626 4.55561638,9.3942626 L2.03999186,9.3942626 L0.0539725006,14.4221778 L0.980781534,14.4221778 C3.49640605,14.4221778 4.2908138,15.7453134 5.21762283,17.7300167 L12.3672925,32.019881 C11.7052861,33.210703 10.9108783,33.8722708 9.71926671,33.8722708 C8.66005638,33.8722708 7.33604348,33.4753301 6.27683316,32.5491352 L3.76120864,36.9154826 C5.35002412,38.3709317 7.46844477,39.1648131 9.71926671,39.1648131 C12.8968977,39.1648131 15.1477196,38.1063046 17.133739,33.210703 L26.5342306,9.52657616 L20.7085738,9.52657616 L14.882917,25.2718895 Z" id="Shape" fill-rule="nonzero"></path>
                                <path d="M132.587664,8.07112702 C136.162499,8.07112702 140.266939,6.21873721 140.531742,0.529254231 L134.838486,0.529254231 C134.838486,2.91089827 133.514473,3.4401525 132.455263,3.4401525 C131.396053,3.4401525 130.204441,2.91089827 130.07204,0.529254231 L124.378784,0.529254231 C124.908389,6.35105077 129.012829,8.07112702 132.587664,8.07112702 Z" id="Shape" fill-rule="nonzero"></path>
                                <text id="Личная-студия" font-family="MuseoCyrl-500, Museo Cyrl" font-size="19" font-weight="normal">
                                    <tspan x="5.39226013" y="62.77431">Личная студия</tspan>
                                </text>
                            </g>
                        </g>
                        <g fill-rule="nonzero" id="Group-5">
                            <g>
                                <path d="M93.872515,68.1414822 C88.8412659,80.3143296 79.308373,89.1793379 68.0542633,93.942626 L70.4374866,99.7644225 C83.1480104,94.4718802 94.0049163,84.2837363 99.6981718,70.5231263 L93.872515,68.1414822 Z M76.2631433,60.8642366 L70.4374866,58.4825925 C68.0542633,64.1720755 63.6850207,68.4061094 58.3889691,70.5231263 L60.7721923,76.3449228 C67.6570595,73.4340245 73.3503149,68.1414822 76.2631433,60.8642366 Z" id="Shape" fill="#46577D"></path>
                                <path d="M5.82565678,68.0091687 L0,70.5231263 C5.29605162,83.2252278 15.490951,94.0749396 29.2606852,99.7644225 L31.6439084,93.942626 C19.4629897,88.7823972 10.459702,79.3881346 5.82565678,68.0091687 Z M88.0468582,65.6275246 C83.6776156,76.0802957 75.4687356,83.8867956 65.6710401,87.9885159 L68.0542633,93.8103124 C79.308373,89.1793379 88.8412659,80.182016 93.872515,68.0091687 L88.0468582,65.6275246 Z M29.2606852,58.350279 L23.4350284,60.8642366 C26.2154555,67.612228 31.6439084,73.301711 38.9259794,76.3449228 L41.3092026,70.5231263 C35.6159472,68.1414822 31.5115071,63.6428213 29.2606852,58.350279 Z M64.6118298,55.9686349 C62.890613,60.0703552 59.712982,62.9812535 56.0057459,64.5690162 L58.3889691,70.3908127 C63.6850207,68.1414822 68.0542633,64.0397619 70.4374866,58.350279 L64.6118298,55.9686349 Z" id="Shape" fill="#D75E66"></path>
                                <path d="M11.6513136,65.6275246 L5.82565678,68.0091687 C10.459702,79.3881346 19.4629897,88.7823972 31.6439084,93.8103124 L34.0271317,87.9885159 C23.5674297,83.6221685 15.7557536,75.4187279 11.6513136,65.6275246 Z M35.086342,55.9686349 L29.2606852,58.350279 C31.5115071,63.6428213 35.6159472,68.0091687 41.3092026,70.3908127 L43.6924259,64.5690162 C39.7203872,62.8489399 36.6751575,59.6734145 35.086342,55.9686349 Z" id="Shape" fill="#704B4C"></path>
                                <path d="M17.6093716,63.2458806 C14.1669381,54.9101265 13.9021355,45.3835503 17.6093716,36.5185419 L11.7837149,34.1368979 C16.1529574,23.6841268 24.3618375,15.8776269 34.159533,11.7759066 L31.7763097,5.9541101 C20.3897987,10.5850846 10.8569058,19.450093 5.82565678,31.6229403 C0.794407743,43.7957876 1.19161161,56.7625163 5.82565678,68.0091687 L11.6513136,65.6275246 C15.7557536,75.4187279 23.4350284,83.6221685 34.0271317,87.9885159 L36.4103549,82.1667194 C27.5394684,78.4619397 21.0518052,71.4493212 17.6093716,63.2458806 Z M40.9119988,53.5869909 C39.9851897,51.3376604 39.8527884,48.6913893 40.9119988,46.1774317 L35.086342,43.7957876 C36.8075588,39.6940673 39.9851897,36.7831691 43.6924259,35.1954064 L41.3092026,29.3736098 C36.013151,31.6229403 31.6439084,35.7246606 29.2606852,41.4141436 C26.877462,47.1036266 27.1422646,53.1900502 29.2606852,58.4825925 L35.086342,56.1009485 C36.6751575,59.9380417 39.5879859,63.113567 43.6924259,64.7013297 L46.0756491,58.8795332 C43.6924259,57.6887112 41.9712091,55.8363214 40.9119988,53.5869909 Z" id="Shape" fill="#B5D059"></path>
                                <path d="M34.0271317,11.7759066 C24.2294362,15.8776269 16.0205562,23.5518133 11.6513136,34.1368979 L17.4769703,36.5185419 C21.1842065,27.6535336 28.2014749,21.0378557 36.4103549,17.5977032 L34.0271317,11.7759066 Z M43.8248272,35.0630928 C39.9851897,36.6508555 36.8075588,39.5617538 35.2187433,43.6634741 L41.0444001,46.0451181 C42.1036104,43.5311605 43.9572285,41.8110842 46.2080504,40.8848893 L43.8248272,35.0630928 Z" id="Shape" fill="#506146"></path>
                                <path d="M63.2878169,17.5977032 L60.9045936,23.4194997 C68.1866646,26.4627115 73.6151175,32.1521945 76.3955446,38.900186 L82.2212014,36.5185419 C78.7787679,28.1827878 72.1587033,21.3024828 63.2878169,17.5977032 Z M53.4901214,41.0172029 L51.1068981,46.8389994 C51.9013059,47.2359401 52.5633123,47.8975079 52.8281149,48.5590757 L58.6537717,46.1774317 C57.859364,43.9281012 56.0057459,41.9433978 53.4901214,41.0172029 Z" id="Shape" fill="#6D5664"></path>
                                <path d="M99.6981718,29.2412963 C94.4021201,16.4068812 84.3396221,5.68948298 70.5698878,0 L68.1866646,5.82179654 C80.3675833,10.8497117 89.2384698,20.3762879 94.0049163,31.6229403 C98.6389614,42.8695927 99.0361653,55.9686349 94.0049163,68.0091687 L99.8305731,70.3908127 C105.391427,56.7625163 104.994223,41.9433978 99.6981718,29.2412963 Z M76.2631433,38.900186 C73.4827162,32.1521945 68.0542633,26.4627115 60.7721923,23.4194997 L58.3889691,29.2412963 C64.0822246,31.6229403 68.3190659,35.9892877 70.4374866,41.28183 C72.6883085,46.5743723 72.8207098,52.660796 70.4374866,58.350279 L76.2631433,60.731923 C73.2179137,68.0091687 67.5246582,73.4340245 60.7721923,76.2126093 L63.1554156,82.0344058 C71.4966969,78.5942533 78.381564,71.9785754 82.0888001,63.113567 C85.7960363,54.2485587 85.5312337,44.589669 82.0888001,36.3862284 L76.2631433,38.900186 Z M52.9605162,48.5590757 C53.2253188,49.352957 53.3577201,50.2791519 52.9605162,51.0730333 C52.5633123,51.8669146 51.9013059,52.5284824 51.2392994,52.7931095 L53.6225227,58.6149061 C55.8733446,57.6887112 57.859364,55.8363214 58.786173,53.4546773 C59.8453833,50.9407197 59.712982,48.4267621 58.786173,46.0451181 L52.9605162,48.5590757 Z" id="Shape" fill="#70B2E2"></path>
                                <path d="M65.6710401,11.6435931 C55.2113381,7.27724568 43.8248272,7.67418635 34.0271317,11.6435931 L36.4103549,17.4653896 C28.2014749,20.9055421 21.1842065,27.52122 17.4769703,36.3862284 L23.3026271,38.7678724 C26.3478568,31.4906267 32.0411123,26.0657709 38.7935781,23.2871862 C45.5460439,20.5086015 53.3577201,20.2439743 60.7721923,23.2871862 L63.1554156,17.4653896 C72.026302,21.1701692 78.6463666,28.1827878 82.0888001,36.3862284 L87.9144569,34.0045843 C83.9424182,24.3456946 76.2631433,16.0099405 65.6710401,11.6435931 Z M56.0057459,35.0630928 C51.9013059,33.3430166 47.5320633,33.4753301 43.8248272,35.0630928 L46.2080504,40.8848893 C43.9572285,41.8110842 41.9712091,43.6634741 41.0444001,46.0451181 L46.8700568,48.4267621 C47.2672607,47.6328808 47.9292672,46.971313 48.5912736,46.7066859 C49.3856814,46.4420588 50.3124904,46.3097452 51.1068981,46.7066859 L53.4901214,40.8848893 C56.0057459,41.9433978 57.7269627,43.7957876 58.6537717,46.0451181 L64.4794285,43.6634741 C63.0230143,39.9586944 59.9777846,36.7831691 56.0057459,35.0630928 Z" id="Shape" fill="#F4C644"></path>
                            </g>
                        </g>
                    </g>
                </g>
            </g>
        </g>
    </g>
</svg>