<?xml version="1.0" encoding="UTF-8"?>
<svg width="274px" height="100px" viewBox="0 0 274 100" version="1.1" xmlns="http://www.w3.org/2000/svg" xmlns:xlink="http://www.w3.org/1999/xlink">
    <!-- Generator: Sketch 52.2 (67145) - http://www.bohemiancoding.com/sketch -->
    <title>logo</title>
    <desc>Created with Sketch.</desc>
    <defs>
        <path d="M5.58226013,62.86931 L5.58226013,61.14031 C7.84326013,60.83631 8.64126013,57.92931 8.64126013,52.47631 L8.64126013,50.99431 L7.38726013,50.99431 L7.38726013,49.36031 L15.2722601,49.36031 C16.1272601,49.36031 16.4882601,49.72131 16.4882601,50.57631 L16.4882601,60.72231 C16.4882601,60.98831 16.6402601,61.14031 16.9062601,61.14031 L17.7232601,61.14031 L17.7232601,62.77431 L15.8042601,62.77431 C14.9492601,62.77431 14.5882601,62.41331 14.5882601,61.55831 L14.5882601,51.41231 C14.5882601,51.12731 14.4362601,50.99431 14.1702601,50.99431 L10.4462601,50.99431 L10.4462601,52.49531 C10.4462601,58.91731 9.28726013,62.66031 5.58226013,62.86931 Z M19.9652601,62.77431 L19.9652601,55.15531 C19.9652601,54.87031 19.8132601,54.73731 19.5662601,54.73731 L18.8062601,54.73731 L18.8062601,53.16031 L20.4972601,53.16031 C21.3522601,53.16031 21.7132601,53.50231 21.7132601,54.35731 L21.7132601,58.93631 C21.7132601,59.44931 21.6562601,60.17131 21.6372601,60.26631 L21.6752601,60.26631 C21.7512601,60.11431 22.2452601,59.37331 22.5682601,58.93631 L26.7102601,53.16031 L28.5342601,53.16031 L28.5342601,60.77931 C28.5342601,61.06431 28.6862601,61.19731 28.9332601,61.19731 L29.6932601,61.19731 L29.6932601,62.77431 L28.0022601,62.77431 C27.1472601,62.77431 26.7862601,62.41331 26.7862601,61.55831 L26.7862601,56.99831 C26.7862601,56.52331 26.8432601,55.80131 26.8622601,55.64931 L26.8242601,55.64931 C26.7482601,55.82031 26.2542601,56.56131 25.9312601,56.99831 L21.7892601,62.77431 L19.9652601,62.77431 Z M34.5192601,59.43031 C32.5242601,59.43031 31.4412601,58.40431 31.4412601,56.54231 L31.4412601,55.15531 C31.4412601,54.85131 31.3082601,54.73731 31.0042601,54.73731 L30.3202601,54.73731 L30.3202601,53.16031 L32.0492601,53.16031 C32.9802601,53.16031 33.2462601,53.63531 33.2462601,54.37631 L33.2462601,56.02931 C33.2462601,56.97931 33.5502601,57.83431 35.0702601,57.83431 C36.0772601,57.83431 36.7992601,57.43531 37.2172601,57.15031 L37.2172601,53.16031 L39.0602601,53.16031 L39.0602601,62.77431 L37.2172601,62.77431 L37.2172601,59.29731 C37.2172601,59.01231 37.2362601,58.68931 37.2362601,58.68931 L37.2172601,58.68931 C36.5522601,59.12631 35.5452601,59.43031 34.5192601,59.43031 Z M41.8912601,62.77431 L41.8912601,55.15531 C41.8912601,54.87031 41.7392601,54.73731 41.4732601,54.73731 L40.6942601,54.73731 L40.6942601,53.16031 L42.5182601,53.16031 C43.3732601,53.16031 43.7342601,53.52131 43.7342601,54.37631 L43.7342601,57.09331 L48.5982601,57.09331 L48.5982601,53.16031 L50.4412601,53.16031 L50.4412601,60.77931 C50.4412601,61.06431 50.5932601,61.19731 50.8592601,61.19731 L51.6192601,61.19731 L51.6192601,62.77431 L49.8142601,62.77431 C48.9592601,62.77431 48.5982601,62.41331 48.5982601,61.55831 L48.5982601,58.63231 L43.7342601,58.63231 L43.7342601,62.77431 L41.8912601,62.77431 Z M52.5882601,60.15231 C52.5882601,56.92231 56.7872601,56.78931 58.4022601,56.78931 L58.8202601,56.78931 L58.8202601,56.65631 C58.8202601,55.00331 58.1742601,54.39531 56.6922601,54.39531 C56.2362601,54.39531 55.1152601,54.50931 55.1152601,55.13631 L55.1152601,55.68731 L53.3672601,55.68731 L53.3672601,54.71831 C53.3672601,53.17931 55.7802601,52.93231 56.6542601,52.93231 C59.8272601,52.93231 60.6632601,54.54731 60.6632601,56.69431 L60.6632601,60.77931 C60.6632601,61.06431 60.8152601,61.19731 61.0812601,61.19731 L61.8602601,61.19731 L61.8602601,62.77431 L60.1122601,62.77431 C59.2572601,62.77431 58.9342601,62.35631 58.9342601,61.67231 C58.9342601,61.33031 58.9532601,61.10231 58.9532601,61.10231 L58.9152601,61.10231 C58.9342601,61.10231 58.0982601,63.00231 55.8182601,63.00231 C54.1462601,63.00231 52.5882601,61.99531 52.5882601,60.15231 Z M54.4312601,59.98131 C54.4312601,60.76031 55.0392601,61.53931 56.2362601,61.53931 C57.8322601,61.53931 58.8202601,59.90531 58.8202601,58.48031 L58.8202601,58.11931 L58.3262601,58.11931 C56.9392601,58.11931 54.4312601,58.25231 54.4312601,59.98131 Z M62.5252601,62.77431 L62.5252601,61.19731 L62.8292601,61.19731 C63.3042601,61.19731 63.5132601,61.12131 63.7222601,60.81731 L64.8052601,59.31631 C64.9382601,59.12631 65.0902601,58.95531 65.2992601,58.82231 L65.2992601,58.78431 C64.0832601,58.49931 63.1712601,57.58731 63.1712601,56.08631 C63.1712601,54.31931 64.5202601,53.16031 66.4012601,53.16031 L71.6452601,53.16031 L71.6452601,54.73731 L70.4482601,54.73731 L70.4482601,62.77431 L68.6052601,62.77431 L68.6052601,59.27831 L67.5412601,59.27831 C67.0092601,59.27831 66.8762601,59.39231 66.5152601,59.92431 L65.1092601,61.88131 C64.5392601,62.66031 64.3302601,62.77431 63.3992601,62.77431 L62.5252601,62.77431 Z M66.9902601,57.94831 L68.6052601,57.94831 L68.6052601,54.43331 L66.9332601,54.43331 C65.6982601,54.43331 65.0142601,55.13631 65.0142601,56.18131 C65.0142601,57.26431 65.8122601,57.94831 66.9902601,57.94831 Z M77.8012601,57.96731 C77.8012601,55.13631 79.8722601,52.93231 82.9692601,52.93231 C84.1282601,52.93231 86.4272601,53.40731 86.4272601,55.04131 L86.4272601,56.02931 L84.7552601,56.02931 L84.7552601,55.49731 C84.7552601,54.81331 83.6532601,54.50931 82.9692601,54.50931 C81.0882601,54.50931 79.6632601,55.91531 79.6632601,57.94831 C79.6632601,60.13331 81.2592601,61.36831 83.0642601,61.36831 C84.8692601,61.36831 86.0472601,60.03831 86.0472601,60.03831 L86.8262601,61.34931 C86.8262601,61.34931 85.4772601,63.00231 82.9312601,63.00231 C79.9102601,63.00231 77.8012601,60.85531 77.8012601,57.96731 Z M91.3102601,62.77431 L91.3102601,54.73731 L89.4482601,54.73731 C89.1822601,54.73731 89.0302601,54.88931 89.0302601,55.15531 L89.0302601,55.80131 L87.5102601,55.80131 L87.5102601,54.33831 C87.5102601,53.48331 87.8712601,53.16031 88.7262601,53.16031 L95.7182601,53.16031 C96.5732601,53.16031 96.9342601,53.48331 96.9342601,54.33831 L96.9342601,55.80131 L95.4142601,55.80131 L95.4142601,55.15531 C95.4142601,54.88931 95.2622601,54.73731 94.9962601,54.73731 L93.1342601,54.73731 L93.1342601,62.77431 L91.3102601,62.77431 Z M99.5942601,66.76431 C98.1692601,66.76431 97.3332601,65.81431 97.3332601,65.81431 L98.0932601,64.48431 C98.1122601,64.54131 98.7012601,65.16831 99.4992601,65.16831 C100.24026,65.16831 100.82926,64.63631 101.19026,63.78131 L101.62726,62.73631 L98.3402601,55.11731 C98.2072601,54.81331 98.0552601,54.73731 97.7512601,54.73731 L97.5042601,54.73731 L97.5042601,53.16031 L98.5872601,53.16031 C99.3662601,53.16031 99.6702601,53.36931 99.9742601,54.12931 L102.14026,59.54431 C102.33026,60.03831 102.48226,60.70331 102.48226,60.70331 L102.52026,60.70331 C102.52026,60.70331 102.67226,60.03831 102.84326,59.54431 L104.85726,54.12931 C105.12326,53.36931 105.46526,53.16031 106.24426,53.16031 L107.34626,53.16031 L107.34626,54.73731 L107.09926,54.73731 C106.79526,54.73731 106.62426,54.81331 106.49126,55.11731 L102.71026,64.50331 C102.10226,65.98531 100.94326,66.76431 99.5942601,66.76431 Z M107.36526,62.43231 C107.36526,61.61531 107.68826,61.23531 108.52426,61.23531 L108.67626,61.23531 C110.21526,59.44931 110.27226,56.58031 110.27226,55.17431 L110.27226,54.73731 L109.09426,54.73731 L109.09426,53.16031 L115.45926,53.16031 C116.31426,53.16031 116.67526,53.52131 116.67526,54.37631 L116.67526,61.23531 L116.97926,61.23531 C117.81526,61.23531 118.13826,61.61531 118.13826,62.43231 L118.13826,65.05431 L116.44726,65.05431 L116.44726,63.19231 C116.44726,62.92631 116.29526,62.77431 116.04826,62.77431 L109.45526,62.77431 C109.20826,62.77431 109.05626,62.92631 109.05626,63.19231 L109.05626,65.05431 L107.36526,65.05431 L107.36526,62.43231 Z M110.53826,61.23531 L114.83226,61.23531 L114.83226,55.15531 C114.83226,54.87031 114.68026,54.73731 114.41426,54.73731 L112.02026,54.73731 L112.02026,55.15531 C112.02026,56.48531 111.98226,59.41131 110.53826,61.23531 Z M119.98126,62.77431 L119.98126,55.15531 C119.98126,54.87031 119.82926,54.73731 119.58226,54.73731 L118.82226,54.73731 L118.82226,53.16031 L120.51326,53.16031 C121.36826,53.16031 121.72926,53.50231 121.72926,54.35731 L121.72926,58.93631 C121.72926,59.44931 121.67226,60.17131 121.65326,60.26631 L121.69126,60.26631 C121.76726,60.11431 122.26126,59.37331 122.58426,58.93631 L126.72626,53.16031 L128.55026,53.16031 L128.55026,60.77931 C128.55026,61.06431 128.70226,61.19731 128.94926,61.19731 L129.70926,61.19731 L129.70926,62.77431 L128.01826,62.77431 C127.16326,62.77431 126.80226,62.41331 126.80226,61.55831 L126.80226,56.99831 C126.80226,56.52331 126.85926,55.80131 126.87826,55.64931 L126.84026,55.64931 C126.76426,55.82031 126.27026,56.56131 125.94726,56.99831 L121.80526,62.77431 L119.98126,62.77431 Z M130.56426,62.77431 L130.56426,61.19731 L130.86826,61.19731 C131.34326,61.19731 131.55226,61.12131 131.76126,60.81731 L132.84426,59.31631 C132.97726,59.12631 133.12926,58.95531 133.33826,58.82231 L133.33826,58.78431 C132.12226,58.49931 131.21026,57.58731 131.21026,56.08631 C131.21026,54.31931 132.55926,53.16031 134.44026,53.16031 L139.68426,53.16031 L139.68426,54.73731 L138.48726,54.73731 L138.48726,62.77431 L136.64426,62.77431 L136.64426,59.27831 L135.58026,59.27831 C135.04826,59.27831 134.91526,59.39231 134.55426,59.92431 L133.14826,61.88131 C132.57826,62.66031 132.36926,62.77431 131.43826,62.77431 L130.56426,62.77431 Z M135.02926,57.94831 L136.64426,57.94831 L136.64426,54.43331 L134.97226,54.43331 C133.73726,54.43331 133.05326,55.13631 133.05326,56.18131 C133.05326,57.26431 133.85126,57.94831 135.02926,57.94831 Z" id="path-1"></path>
    </defs>
    <g id="Page-1" stroke="none" stroke-width="1" fill="none" fill-rule="evenodd">
        <g id="logo">
            <g id="Group-3" transform="translate(125.330050, 15.938813)">
                <g id="Group">
                    <path d="M87.1740217,31.3583132 L87.1740217,9.3942626 L81.7455688,9.3942626 L81.7455688,21.0378557 L70.8886629,21.0378557 L70.8886629,9.3942626 L60.8261648,9.3942626 L61.4881713,14.4221778 L65.3278087,14.4221778 L65.3278087,38.7678724 L70.7562616,38.7678724 L70.7562616,26.4627115 L81.6131675,26.4627115 L81.6131675,32.4168216 C81.6131675,37.1801097 83.3343842,38.7678724 86.2472126,38.7678724 L89.5572449,38.7678724 L90.7488565,33.7399572 L88.6304359,33.7399572 C87.4388242,33.7399572 87.1740217,32.8137623 87.1740217,31.3583132 Z" id="Shape" fill="#FFFFFF"></path>
                    <path d="M57.6485339,32.5491352 L55.1329094,9.3942626 L50.1016603,9.3942626 L42.9519906,25.4042031 L35.2727158,9.3942626 L30.373868,9.3942626 L27.3286383,38.7678724 L32.8894925,38.7678724 L34.7431106,19.3177794 L40.7011687,31.7552539 L44.93801,31.7552539 L50.4988642,19.3177794 L51.9552784,33.0783894 C52.3524823,37.0477962 53.2792913,38.7678724 56.7217248,38.7678724 L59.6345532,38.7678724 L60.6937636,34.2692115 L58.8401455,34.2692115 C58.178139,34.2692115 57.7809352,34.0045843 57.6485339,32.5491352 Z" id="Shape" fill="#FFFFFF"></path>
                    <path d="M100.943756,29.7705505 L100.943756,26.330398 L110.344248,26.330398 L111.403458,21.1701692 L100.811355,21.1701692 L100.811355,14.6868049 L114.051484,14.6868049 L113.257076,9.26194904 L92.2052707,9.26194904 L91.2784617,14.6868049 L95.3829017,14.6868049 L95.3829017,30.829059 C95.3829017,37.9739911 100.678953,38.6355589 101.870565,38.6355589 L113.521878,38.6355589 L114.71349,33.210703 L103.856584,33.210703 C102.135367,33.3430166 100.943756,33.0783894 100.943756,29.7705505 Z" id="Shape" fill="#FFFFFF"></path>
                    <path d="M145.695392,33.7399572 C144.238978,33.7399572 144.106577,32.6814488 144.106577,31.3583132 L144.106577,9.3942626 L139.34013,9.3942626 L126.364804,28.9766691 L126.364804,9.3942626 L116.302306,9.3942626 L117.096713,14.4221778 L120.936351,14.4221778 L120.936351,38.7678724 L125.702797,38.7678724 L138.678124,19.1854659 L138.678124,32.4168216 C138.678124,37.1801097 140.39934,38.7678724 143.312169,38.7678724 L146.622201,38.7678724 L147.813813,33.7399572 L145.695392,33.7399572 Z" id="Shape" fill="#FFFFFF"></path>
                    <path d="M14.882917,25.2718895 L9.71926671,13.6282964 C8.26285251,10.4527711 6.93883961,9.3942626 4.55561638,9.3942626 L2.03999186,9.3942626 L0.0539725006,14.4221778 L0.980781534,14.4221778 C3.49640605,14.4221778 4.2908138,15.7453134 5.21762283,17.7300167 L12.3672925,32.019881 C11.7052861,33.210703 10.9108783,33.8722708 9.71926671,33.8722708 C8.66005638,33.8722708 7.33604348,33.4753301 6.27683316,32.5491352 L3.76120864,36.9154826 C5.35002412,38.3709317 7.46844477,39.1648131 9.71926671,39.1648131 C12.8968977,39.1648131 15.1477196,38.1063046 17.133739,33.210703 L26.5342306,9.52657616 L20.7085738,9.52657616 L14.882917,25.2718895 Z" id="Shape" fill="#FFFFFF"></path>
                    <path d="M132.587664,8.07112702 C136.162499,8.07112702 140.266939,6.21873721 140.531742,0.529254231 L134.838486,0.529254231 C134.838486,2.91089827 133.514473,3.4401525 132.455263,3.4401525 C131.396053,3.4401525 130.204441,2.91089827 130.07204,0.529254231 L124.378784,0.529254231 C124.908389,6.35105077 129.012829,8.07112702 132.587664,8.07112702 Z" id="Shape" fill="#FFFFFF"></path>
                    <g id="Личная-студия">
                        <use fill="#000000" xlink:href="#path-1"></use>
                        <use fill="#FFFFFF" xlink:href="#path-1"></use>
                    </g>
                </g>
            </g>
            <g id="Group-5" fill-rule="nonzero">
                <g id="Group">
                    <path d="M93.872515,68.1414822 C88.8412659,80.3143296 79.308373,89.1793379 68.0542633,93.942626 L70.4374866,99.7644225 C83.1480104,94.4718802 94.0049163,84.2837363 99.6981718,70.5231263 L93.872515,68.1414822 Z M76.2631433,60.8642366 L70.4374866,58.4825925 C68.0542633,64.1720755 63.6850207,68.4061094 58.3889691,70.5231263 L60.7721923,76.3449228 C67.6570595,73.4340245 73.3503149,68.1414822 76.2631433,60.8642366 Z" id="Shape" fill="#46577D"></path>
                    <path d="M5.82565678,68.0091687 L0,70.5231263 C5.29605162,83.2252278 15.490951,94.0749396 29.2606852,99.7644225 L31.6439084,93.942626 C19.4629897,88.7823972 10.459702,79.3881346 5.82565678,68.0091687 Z M88.0468582,65.6275246 C83.6776156,76.0802957 75.4687356,83.8867956 65.6710401,87.9885159 L68.0542633,93.8103124 C79.308373,89.1793379 88.8412659,80.182016 93.872515,68.0091687 L88.0468582,65.6275246 Z M29.2606852,58.350279 L23.4350284,60.8642366 C26.2154555,67.612228 31.6439084,73.301711 38.9259794,76.3449228 L41.3092026,70.5231263 C35.6159472,68.1414822 31.5115071,63.6428213 29.2606852,58.350279 Z M64.6118298,55.9686349 C62.890613,60.0703552 59.712982,62.9812535 56.0057459,64.5690162 L58.3889691,70.3908127 C63.6850207,68.1414822 68.0542633,64.0397619 70.4374866,58.350279 L64.6118298,55.9686349 Z" id="Shape" fill="#D75E66"></path>
                    <path d="M11.6513136,65.6275246 L5.82565678,68.0091687 C10.459702,79.3881346 19.4629897,88.7823972 31.6439084,93.8103124 L34.0271317,87.9885159 C23.5674297,83.6221685 15.7557536,75.4187279 11.6513136,65.6275246 Z M35.086342,55.9686349 L29.2606852,58.350279 C31.5115071,63.6428213 35.6159472,68.0091687 41.3092026,70.3908127 L43.6924259,64.5690162 C39.7203872,62.8489399 36.6751575,59.6734145 35.086342,55.9686349 Z" id="Shape" fill="#704B4C"></path>
                    <path d="M17.6093716,63.2458806 C14.1669381,54.9101265 13.9021355,45.3835503 17.6093716,36.5185419 L11.7837149,34.1368979 C16.1529574,23.6841268 24.3618375,15.8776269 34.159533,11.7759066 L31.7763097,5.9541101 C20.3897987,10.5850846 10.8569058,19.450093 5.82565678,31.6229403 C0.794407743,43.7957876 1.19161161,56.7625163 5.82565678,68.0091687 L11.6513136,65.6275246 C15.7557536,75.4187279 23.4350284,83.6221685 34.0271317,87.9885159 L36.4103549,82.1667194 C27.5394684,78.4619397 21.0518052,71.4493212 17.6093716,63.2458806 Z M40.9119988,53.5869909 C39.9851897,51.3376604 39.8527884,48.6913893 40.9119988,46.1774317 L35.086342,43.7957876 C36.8075588,39.6940673 39.9851897,36.7831691 43.6924259,35.1954064 L41.3092026,29.3736098 C36.013151,31.6229403 31.6439084,35.7246606 29.2606852,41.4141436 C26.877462,47.1036266 27.1422646,53.1900502 29.2606852,58.4825925 L35.086342,56.1009485 C36.6751575,59.9380417 39.5879859,63.113567 43.6924259,64.7013297 L46.0756491,58.8795332 C43.6924259,57.6887112 41.9712091,55.8363214 40.9119988,53.5869909 Z" id="Shape" fill="#B5D059"></path>
                    <path d="M34.0271317,11.7759066 C24.2294362,15.8776269 16.0205562,23.5518133 11.6513136,34.1368979 L17.4769703,36.5185419 C21.1842065,27.6535336 28.2014749,21.0378557 36.4103549,17.5977032 L34.0271317,11.7759066 Z M43.8248272,35.0630928 C39.9851897,36.6508555 36.8075588,39.5617538 35.2187433,43.6634741 L41.0444001,46.0451181 C42.1036104,43.5311605 43.9572285,41.8110842 46.2080504,40.8848893 L43.8248272,35.0630928 Z" id="Shape" fill="#506146"></path>
                    <path d="M63.2878169,17.5977032 L60.9045936,23.4194997 C68.1866646,26.4627115 73.6151175,32.1521945 76.3955446,38.900186 L82.2212014,36.5185419 C78.7787679,28.1827878 72.1587033,21.3024828 63.2878169,17.5977032 Z M53.4901214,41.0172029 L51.1068981,46.8389994 C51.9013059,47.2359401 52.5633123,47.8975079 52.8281149,48.5590757 L58.6537717,46.1774317 C57.859364,43.9281012 56.0057459,41.9433978 53.4901214,41.0172029 Z" id="Shape" fill="#6D5664"></path>
                    <path d="M99.6981718,29.2412963 C94.4021201,16.4068812 84.3396221,5.68948298 70.5698878,0 L68.1866646,5.82179654 C80.3675833,10.8497117 89.2384698,20.3762879 94.0049163,31.6229403 C98.6389614,42.8695927 99.0361653,55.9686349 94.0049163,68.0091687 L99.8305731,70.3908127 C105.391427,56.7625163 104.994223,41.9433978 99.6981718,29.2412963 Z M76.2631433,38.900186 C73.4827162,32.1521945 68.0542633,26.4627115 60.7721923,23.4194997 L58.3889691,29.2412963 C64.0822246,31.6229403 68.3190659,35.9892877 70.4374866,41.28183 C72.6883085,46.5743723 72.8207098,52.660796 70.4374866,58.350279 L76.2631433,60.731923 C73.2179137,68.0091687 67.5246582,73.4340245 60.7721923,76.2126093 L63.1554156,82.0344058 C71.4966969,78.5942533 78.381564,71.9785754 82.0888001,63.113567 C85.7960363,54.2485587 85.5312337,44.589669 82.0888001,36.3862284 L76.2631433,38.900186 Z M52.9605162,48.5590757 C53.2253188,49.352957 53.3577201,50.2791519 52.9605162,51.0730333 C52.5633123,51.8669146 51.9013059,52.5284824 51.2392994,52.7931095 L53.6225227,58.6149061 C55.8733446,57.6887112 57.859364,55.8363214 58.786173,53.4546773 C59.8453833,50.9407197 59.712982,48.4267621 58.786173,46.0451181 L52.9605162,48.5590757 Z" id="Shape" fill="#70B2E2"></path>
                    <path d="M65.6710401,11.6435931 C55.2113381,7.27724568 43.8248272,7.67418635 34.0271317,11.6435931 L36.4103549,17.4653896 C28.2014749,20.9055421 21.1842065,27.52122 17.4769703,36.3862284 L23.3026271,38.7678724 C26.3478568,31.4906267 32.0411123,26.0657709 38.7935781,23.2871862 C45.5460439,20.5086015 53.3577201,20.2439743 60.7721923,23.2871862 L63.1554156,17.4653896 C72.026302,21.1701692 78.6463666,28.1827878 82.0888001,36.3862284 L87.9144569,34.0045843 C83.9424182,24.3456946 76.2631433,16.0099405 65.6710401,11.6435931 Z M56.0057459,35.0630928 C51.9013059,33.3430166 47.5320633,33.4753301 43.8248272,35.0630928 L46.2080504,40.8848893 C43.9572285,41.8110842 41.9712091,43.6634741 41.0444001,46.0451181 L46.8700568,48.4267621 C47.2672607,47.6328808 47.9292672,46.971313 48.5912736,46.7066859 C49.3856814,46.4420588 50.3124904,46.3097452 51.1068981,46.7066859 L53.4901214,40.8848893 C56.0057459,41.9433978 57.7269627,43.7957876 58.6537717,46.0451181 L64.4794285,43.6634741 C63.0230143,39.9586944 59.9777846,36.7831691 56.0057459,35.0630928 Z" id="Shape" fill="#F4C644"></path>
                </g>
            </g>
        </g>
    </g>
</svg>