<?xml version="1.0" encoding="UTF-8"?>
<svg width="184px" height="334px" viewBox="0 0 184 334" version="1.1" xmlns="http://www.w3.org/2000/svg" xmlns:xlink="http://www.w3.org/1999/xlink">
    <!-- Generator: Sketch 51.2 (57519) - http://www.bohemiancoding.com/sketch -->
    <title>logo</title>
    <desc>Created with Sketch.</desc>
    <defs></defs>
    <g id="Главная" stroke="none" stroke-width="1" fill="none" fill-rule="evenodd">
        <g id="PUSSY-HEADER" transform="translate(0.000000, -1093.000000)">
            <g id="logo" transform="translate(-35.368705, 1303.631295) scale(-1, -1) rotate(225.000000) translate(35.368705, -1303.631295) translate(-238.368705, 1087.131295)">
                <g id="Group-4" transform="translate(0.000000, 230.533249)">
                    <path d="M351.767344,22.4224694 L324.778724,11.2754073 C313.923477,37.3846013 293.439462,56.654659 269.13567,66.6943165 L280.302112,93.6005985 C311.53154,80.6950752 337.836749,55.9488407 351.767344,22.4224694 Z" id="Fill-1" fill="#203E67"></path>
                    <path d="M297.7779,0.122260521 C290.022409,18.8081927 275.359589,32.6020736 257.957024,39.8002037 L269.13567,66.6943165 C293.439462,56.654659 313.923477,37.3846013 324.778724,11.2754073 L297.7779,0.122260521 Z M134.900388,11.2449841 L107.923971,22.3981308 C120.853857,53.5393229 145.682411,79.7641251 179.297674,93.6553602 L190.476321,66.7429936 C164.299251,55.9245021 144.968491,35.5044473 134.900388,11.2449841 Z M26.9764164,55.8271478 L0,66.97421 C24.3892188,125.68491 71.1967488,175.134786 134.576988,201.316996 L134.58309,201.316996 L145.761736,174.404629 L145.755634,174.404629 C89.8074861,151.295163 48.5099548,107.64395 26.9764164,55.8271478 Z" id="Fill-3" fill="#DD4255"></path>
                </g>
                <path d="M188.841017,219.508447 C184.508681,209.042865 184.154772,196.928345 188.828813,185.653505 L161.846295,174.506443 C169.601785,155.820511 184.258504,142.02663 201.673272,134.846754 L190.488524,107.940472 C166.172528,117.974044 145.694615,137.250187 134.851572,163.359381 C124.002428,189.46249 124.826182,217.543108 134.900388,241.778233 L161.870702,230.649424 C169.089227,248.008905 182.922192,262.618128 201.654967,270.357791 L212.839715,243.451509 C201.539031,238.778505 193.19776,229.967945 188.841017,219.508447 Z M80.935351,264.072357 C65.1375808,226.037267 63.8561858,182.01489 80.8743322,141.065257 L53.8796102,129.906025 C73.9670028,81.5452995 111.920703,45.8345421 156.970892,27.2277103 L145.798347,0.327512938 C93.8286258,21.7880413 50.0598326,62.9749755 26.8848882,118.765048 C3.70994371,174.561205 5.45508171,234.53751 26.9764164,286.360396 L53.9589346,275.213334 C72.6184871,320.148407 108.430427,357.988789 156.93428,378.019427 L168.112926,351.10706 C127.053368,334.149166 96.7331212,302.101362 80.935351,264.072357 Z" id="Fill-6" fill="#ABCD45"></path>
                <path d="M201.673272,134.846754 C184.258504,142.02663 169.601785,155.820511 161.846295,174.506443 L188.828813,185.653505 C193.508956,174.396919 202.350581,166.073131 212.845817,161.740866 L201.673272,134.846754 Z M156.970892,27.2277103 C111.920703,45.8345421 73.9670028,81.5452995 53.8796102,129.906025 L80.8743322,141.065257 C97.8802749,100.109539 130.000577,69.8810429 168.143436,54.1279077 L156.970892,27.2277103 Z" id="Fill-7" fill="#435E31"></path>
                <g id="Group-11" transform="translate(235.442213, 54.050576)">
                    <path d="M11.342267,107.672036 L0.157518931,134.590488 C4.02000967,136.190748 6.87569003,139.190476 8.35844714,142.749991 L35.3287616,131.615098 C30.9903242,121.1556 22.6307471,112.34504 11.342267,107.672036 Z M56.0690555,0.0104004201 L44.8843075,26.9227671 C78.4995705,40.8140022 103.328125,67.0570584 116.264113,98.1921658 L143.240529,87.0451037 C127.436657,49.0160981 97.1286135,16.9743792 56.0690555,0.0104004201 Z" id="Fill-8" fill="#6B394C"></path>
                    <path d="M8.35844714,142.749991 C9.84120425,146.321675 9.94493623,150.453146 8.35844714,154.316893 C6.75975429,158.156302 3.74542502,161.003914 0.157518931,162.476397 L11.3300632,189.370509 C21.8314006,185.038245 30.6608226,176.726626 35.3409654,165.463955 C40.0272101,154.183031 39.6671991,142.080681 35.3287616,131.615098 L8.35844714,142.749991 Z M116.264113,98.1921658 C103.328125,67.0570584 78.4995705,40.8140022 44.8843075,26.9227671 L33.6995594,53.8351337 C59.8827312,64.6536252 79.2134906,85.0797647 89.2815944,109.339228 C99.3558001,133.586522 100.16735,161.65497 89.3365113,187.75808 L116.325131,198.905142 C102.394537,232.431513 76.0893274,257.177748 44.8598999,270.083271 L56.0263424,296.983468 C94.1692012,281.236418 126.295605,251.001837 143.30765,210.052204 C160.319694,169.108655 159.038299,125.074109 143.240529,87.0451037 L116.264113,98.1921658 Z" id="Fill-10" fill="#3AA9D1"></path>
                </g>
                <path d="M257.963126,134.810246 C239.224249,127.070583 219.075837,127.648624 201.673272,134.846754 L212.845817,161.740866 C202.350581,166.073131 193.508956,174.396919 188.828813,185.653505 L215.823535,196.800567 C217.422228,192.955074 220.436557,190.113547 224.018361,188.641064 C227.594063,187.168581 231.743343,187.040803 235.599731,188.641064 L246.78448,161.722612 C258.07296,166.395617 266.432537,175.206177 270.770974,185.665674 L297.753492,174.524697 C290.534967,157.159132 276.702003,142.543824 257.963126,134.810246 Z M302.683812,27.1425253 C254.179959,7.11188753 202.02108,8.62087847 156.970892,27.2277103 L168.143436,54.1279077 C130.000577,69.8810429 97.8802749,100.109539 80.8743322,141.065257 L107.85685,152.212319 C121.793547,118.679863 148.092654,93.9275437 179.31598,81.0402743 C210.545408,68.1286663 246.699053,67.0881928 280.32652,80.9733433 L291.511268,54.0609766 C332.570826,71.0249554 362.878869,103.066674 378.682742,141.09568 L405.659158,129.936448 C387.005707,85.0257141 351.193767,47.1792478 302.683812,27.1425253 Z" id="Fill-12" fill="#F9C623"></path>
            </g>
        </g>
    </g>
</svg>