<?xml version="1.0" encoding="UTF-8"?>
<svg width="212px" height="383px" viewBox="0 0 212 383" version="1.1" xmlns="http://www.w3.org/2000/svg" xmlns:xlink="http://www.w3.org/1999/xlink">
    <!-- Generator: Sketch 50.2 (55047) - http://www.bohemiancoding.com/sketch -->
    <title>Logo</title>
    <desc>Created with Sketch.</desc>
    <defs></defs>
    <g id="Главная" stroke="none" stroke-width="1" fill="none" fill-rule="evenodd" opacity="0.5">
        <g id="Вход" transform="translate(-1228.000000, -641.000000)">
            <g id="Logo" transform="translate(1474.399660, 877.399660) scale(1, -1) rotate(225.000000) translate(-1474.399660, -877.399660) translate(1246.899660, 633.899660)">
                <g id="Group-4" transform="translate(0.000000, 259.283353)">
                    <path d="M394.222023,25.218805 L363.976156,12.6815782 C351.810794,42.0468842 328.85457,63.7201361 301.617561,75.0118525 L314.131678,105.273652 C349.130174,90.7586642 378.61015,62.9262942 394.222023,25.218805 Z" id="Fill-1" fill="#203E67"></path>
                    <path d="M333.716612,0.137507792 C325.025114,21.1537872 308.592643,36.6679211 289.089768,44.7637396 L301.617561,75.0118525 C328.85457,63.7201361 351.810794,42.0468842 363.976156,12.6815782 L333.716612,0.137507792 Z M151.181469,12.6473608 L120.949278,25.1914312 C135.439668,60.2162823 163.264771,89.7116141 200.937049,105.335244 L213.464842,75.0666002 C184.128471,62.8989204 162.464689,39.9322536 151.181469,12.6473608 Z M30.2321908,62.7894249 L0,75.3266518 C27.3327452,141.35924 79.7894598,196.976076 150.819038,226.423504 L150.825876,226.423504 L163.35367,196.15486 L163.346831,196.15486 C100.646321,170.163382 54.3646045,121.068368 30.2321908,62.7894249 Z" id="Fill-3" fill="#DD4255"></path>
                </g>
                <path d="M211.632174,246.883634 C206.77697,235.112875 206.380348,221.487538 211.618497,208.806598 L181.379468,196.269371 C190.070966,175.253092 206.496599,159.738958 226.01315,151.66367 L213.478519,121.40187 C186.227833,132.686743 163.278448,154.366838 151.126762,183.732144 C138.968238,213.090607 139.891411,244.673195 151.181469,271.930714 L181.406821,259.414018 C189.496548,278.938422 204.999008,295.36958 225.992635,304.074467 L238.527267,273.812667 C225.862707,268.556886 216.514731,258.64755 211.632174,246.883634 Z M90.7034106,297.005168 C72.999013,254.226672 71.5629668,204.714206 90.6350275,158.657691 L60.3823218,146.106777 C82.8940549,91.7149212 125.428374,51.5506282 175.915654,30.6233139 L163.394699,0.368357508 C105.15277,24.5052567 56.1015365,70.8286676 30.129616,133.576393 C4.15769554,196.330962 6.11345364,263.786992 30.2321908,322.072778 L60.4712199,309.535552 C81.3827872,360.074537 121.516858,402.634042 175.874624,425.162727 L188.402418,394.894084 C142.387396,375.821348 108.407808,339.776821 90.7034106,297.005168 Z" id="Fill-6" fill="#ABCD45"></path>
                <path d="M226.01315,151.66367 C206.496599,159.738958 190.070966,175.253092 181.379468,196.269371 L211.618497,208.806598 C216.863485,196.146189 226.772203,186.784329 238.534105,181.911783 L226.01315,151.66367 Z M175.915654,30.6233139 C125.428374,51.5506282 82.8940549,91.7149212 60.3823218,146.106777 L90.6350275,158.657691 C109.693411,112.594331 145.690302,78.5959998 188.436609,60.8782703 L175.915654,30.6233139 Z" id="Fill-7" fill="#435E31"></path>
                <path d="M276.568813,181.891252 L264.034182,212.166739 C268.362835,213.96657 271.563167,217.340398 273.224877,221.343825 L303.45023,208.820285 C298.588188,197.05637 289.219696,187.147033 276.568813,181.891252 Z M326.693662,60.8029922 L314.159031,91.0716355 C351.831309,106.695265 379.656412,136.211127 394.15364,171.229135 L424.385831,158.691908 C406.674595,115.920255 372.708684,79.8825711 326.693662,60.8029922 Z" id="Fill-8" fill="#6B394C"></path>
                <path d="M273.224877,221.343825 C274.886588,225.360939 275.002839,230.007651 273.224877,234.353251 C271.433239,238.671477 268.055111,241.874218 264.034182,243.530337 L276.555137,273.77845 C288.323877,268.905903 298.218919,259.557731 303.463906,246.890478 C308.715732,234.202695 308.312272,220.591044 303.45023,208.820285 L273.224877,221.343825 Z M394.15364,171.229135 C379.656412,136.211127 351.831309,106.695265 314.159031,91.0716355 L301.6244,121.340279 C330.967609,133.507959 352.631391,156.481469 363.914611,183.766362 C375.204669,211.037568 376.114165,242.606469 363.976156,271.964932 L394.222023,284.502159 C378.61015,322.209648 349.130174,350.042018 314.131678,364.557006 L326.645794,394.811962 C369.392102,377.101076 405.39583,343.095901 424.461053,297.039385 C443.526275,250.989713 442.090229,201.463561 424.385831,158.691908 L394.15364,171.229135 Z" id="Fill-10" fill="#3AA9D1"></path>
                <path d="M289.096606,151.622609 C268.096141,142.917722 245.516025,143.567851 226.01315,151.66367 L238.534105,181.911783 C226.772203,186.784329 216.863485,196.146189 211.618497,208.806598 L241.871203,221.343825 C243.662841,217.018755 247.040969,213.822858 251.05506,212.166739 C255.062312,210.510621 259.712367,210.366908 264.034182,212.166739 L276.568813,181.891252 C289.219696,187.147033 298.588188,197.05637 303.45023,208.820285 L333.689259,196.289902 C325.599532,176.758654 310.097072,160.320652 289.096606,151.622609 Z M339.214617,30.5275054 C284.856851,7.99882038 226.402934,9.69599957 175.915654,30.6233139 L188.436609,60.8782703 C145.690302,78.5959998 109.693411,112.594331 90.6350275,158.657691 L120.874057,171.194917 C136.492768,133.480585 165.965906,105.641371 200.957564,91.1469136 C235.95606,76.625082 276.473077,75.4548496 314.159031,91.0716355 L326.693662,60.8029922 C372.708684,79.8825711 406.674595,115.920255 424.385831,158.691908 L454.618022,146.140994 C433.713293,95.6293828 393.579222,53.0630339 339.214617,30.5275054 Z" id="Fill-12" fill="#F9C623"></path>
            </g>
        </g>
    </g>
</svg>