<?xml version="1.0" encoding="UTF-8"?>
<svg width="16px" height="25px" viewBox="0 0 16 25" version="1.1" xmlns="http://www.w3.org/2000/svg" xmlns:xlink="http://www.w3.org/1999/xlink">
    <!-- Generator: Sketch 50.2 (55047) - http://www.bohemiancoding.com/sketch -->
    <title>odnoklassniki</title>
    <desc>Created with Sketch.</desc>
    <defs></defs>
    <g id="Главная" stroke="none" stroke-width="1" fill="none" fill-rule="evenodd">
        <g id="Вход" transform="translate(-1323.000000, -166.000000)" fill="#FF9800" fill-rule="nonzero">
            <g id="Social_icons" transform="translate(1204.000000, 164.000000)">
                <g id="odnoklassniki" transform="translate(119.000000, 2.000000)">
                    <path d="M7.99997543,13.372093 C11.7636744,13.372093 14.8148148,10.3786532 14.8148148,6.6860224 C14.8148148,2.99339162 11.7637235,0 7.99997543,0 C4.23622731,0 1.18518519,2.99343984 1.18518519,6.68607062 C1.18980485,10.3767727 4.23819313,13.3675606 7.99997543,13.372093 Z M7.99997543,3.08587133 C10.0265826,3.08587133 11.6695119,4.69770872 11.6695119,6.68607062 C11.6695119,8.67443252 10.0266317,10.2862699 7.99997543,10.2862699 C5.97331915,10.2862699 4.33043897,8.67443252 4.33043897,6.68607062 C4.33043897,4.69770872 5.97336829,3.08587133 7.99997543,3.08587133 Z" id="odnoklassniki_shape_2"></path>
                    <path d="M14.7912847,16.8495677 C15.5447685,16.3721011 15.9987588,15.5625821 15.9998087,14.6945704 C16.0103085,13.9741856 15.5877676,13.3126784 14.915032,12.9962113 C14.2238468,12.6640627 13.3964646,12.7388623 12.7817278,13.1891509 C9.93263889,15.1874779 6.06837179,15.1874779 3.21928291,13.1891509 C2.60359612,12.7412193 1.77766384,12.6665159 1.08597867,12.9962113 C0.4135431,13.3126303 -0.00919783084,13.973416 0.000151968586,14.6935122 C0.00175193426,15.5613796 0.455592198,16.370658 1.20867604,16.8485094 C2.17485532,17.4666762 3.22703274,17.950348 4.333959,18.2851903 C4.52170497,18.341278 4.71545081,18.3932769 4.91529653,18.4411871 L1.69191568,21.4735761 C0.846333816,22.262892 0.825884255,23.5621918 1.64631665,24.3757514 C2.46674905,25.1892628 3.81727008,25.2089368 4.66290194,24.419621 C4.68050156,24.4031699 4.69780119,24.3864782 4.71480083,24.3694499 L8.00008035,21.0979428 L11.2917597,24.3756071 C12.1114921,25.1897439 13.4620632,25.210428 14.308295,24.4217856 C15.1545269,23.6331432 15.1760264,22.3337952 14.356294,21.5196584 C14.3391444,21.5026301 14.3216947,21.4858904 14.3039451,21.4694393 L11.0858642,18.4401288 C11.2856599,18.3908718 11.4801557,18.3385361 11.6693016,18.2831219 C12.7750279,17.9495783 13.8262054,17.4669167 14.7912847,16.8495677 Z" id="odnoklassniki_shape_1"></path>
                </g>
            </g>
        </g>
    </g>
</svg>