<?xml version="1.0" encoding="UTF-8"?>
<svg width="19px" height="19px" viewBox="0 0 19 19" version="1.1" xmlns="http://www.w3.org/2000/svg" xmlns:xlink="http://www.w3.org/1999/xlink">
    <!-- Generator: Sketch 52.2 (67145) - http://www.bohemiancoding.com/sketch -->
    <title>rubl copy 6</title>
    <desc>Created with Sketch.</desc>
    <g id="Symbols" stroke="none" stroke-width="1" fill="none" fill-rule="evenodd">
        <g id="rubl-copy-8" fill="#FFFFFF">
            <g id="rubl-copy-6">
                <g>
                    <path d="M6.42632114,9.50609756 L7.36432927,9.50609756 L7.36432927,5.29166667 L9.7820122,5.29166667 C10.2312014,5.29166667 10.6407502,5.34230979 11.0106707,5.44359756 C11.3805913,5.54488533 11.6976613,5.69901658 11.9618902,5.90599593 C12.2261192,6.11297529 12.4330955,6.37499841 12.5828252,6.69207317 C12.7325549,7.00914793 12.8074187,7.38787043 12.8074187,7.82825203 C12.8074187,8.26863364 12.7281512,8.65175989 12.5696138,8.97764228 C12.4110764,9.30352466 12.1952927,9.57435529 11.9222561,9.79014228 C11.6492195,10.0059293 11.3277458,10.1666661 10.9578252,10.2723577 C10.5879047,10.3780493 10.1871634,10.4308943 9.75558943,10.4308943 L8.42123984,10.4308943 L8.42123984,11.7652439 L10.5482724,11.7652439 L10.5482724,12.6371951 L8.42123984,12.6371951 L8.42123984,14.5 L7.36432927,14.5 L7.36432927,12.6371951 L6.42632114,12.6371951 L6.42632114,11.7652439 L7.36432927,11.7652439 L7.36432927,10.4308943 L6.42632114,10.4308943 L6.42632114,9.50609756 Z M9.7820122,9.50609756 C10.3897388,9.50609756 10.8675457,9.36737944 11.2154472,9.08993902 C11.5633486,8.81249861 11.7372967,8.39194049 11.7372967,7.82825203 C11.7372967,7.26456358 11.5633486,6.85501483 11.2154472,6.5995935 C10.8675457,6.34417216 10.3897388,6.21646341 9.7820122,6.21646341 L8.42123984,6.21646341 L8.42123984,9.50609756 L9.7820122,9.50609756 Z M9.5,19 C14.7467051,19 19,14.7467051 19,9.5 C19,4.25329488 14.7467051,0 9.5,0 C4.25329488,0 0,4.25329488 0,9.5 C0,14.7467051 4.25329488,19 9.5,19 Z" id="₽"></path>
                </g>
            </g>
        </g>
    </g>
</svg>