<?xml version="1.0" encoding="UTF-8"?>
<svg width="27px" height="27px" viewBox="0 0 27 27" version="1.1" xmlns="http://www.w3.org/2000/svg" xmlns:xlink="http://www.w3.org/1999/xlink">
    <!-- Generator: Sketch 50.2 (55047) - http://www.bohemiancoding.com/sketch -->
    <title>vk</title>
    <desc>Created with Sketch.</desc>
    <defs></defs>
    <g id="Главная" stroke="none" stroke-width="1" fill="none" fill-rule="evenodd">
        <g id="Вход" transform="translate(-1204.000000, -164.000000)">
            <g id="Social_icons" transform="translate(1204.000000, 164.000000)">
                <g id="vk">
                    <path d="M27,13.5 C27,20.9555471 20.9555471,27 13.5,27 C6.04445286,27 0,20.9555471 0,13.5 C0,6.04445286 6.04445286,0 13.5,0 C20.9555471,0 27,6.04445286 27,13.5 Z" id="vk_fill_2" fill="#4D76A1"></path>
                    <path d="M12.317657,19.9582766 L13.3340101,19.9582766 C13.3340101,19.9582766 13.6406758,19.9234735 13.7970378,19.7491605 C13.9412832,19.5888281 13.9369558,19.2889859 13.9369558,19.2889859 C13.9369558,19.2889859 13.9167614,17.8828805 14.5499987,17.676144 C15.1742928,17.4714898 15.9742777,19.034358 16.8241715,19.6352323 C17.466352,20.0906475 17.9544784,19.9907 17.9544784,19.9907 L20.2240354,19.9582766 C20.2240354,19.9582766 21.4117519,19.8827211 20.8483294,18.9195374 C20.8021709,18.8404124 20.5203154,18.2071146 19.1600814,16.905716 C17.7369564,15.5439325 17.9273603,15.7634599 19.642438,13.4069616 C20.6870631,11.9720023 21.1042208,11.0959751 20.9743999,10.7205774 C20.8494834,10.36273 20.0820979,10.457918 20.0820979,10.457918 L17.5249156,10.4742784 C17.5249156,10.4742784 17.3356657,10.4475068 17.1948822,10.5334735 C17.0572721,10.6182503 16.9695709,10.8169553 16.9695709,10.8169553 C16.9695709,10.8169553 16.5648183,11.9279779 16.0250521,12.8712316 C14.8869559,14.8654205 14.4317175,14.9698298 14.2456409,14.8466803 C13.8129048,14.5572493 13.9210888,13.6871713 13.9210888,13.0690442 C13.9210888,11.1376199 14.2052522,10.3323888 13.3677635,10.1244625 C13.0905239,10.0548563 12.8854069,10.0093445 12.1754311,10.0025029 C11.2626463,9.99209166 10.4909334,10.0048826 10.0535814,10.2255998 C9.7627827,10.3719513 9.53862536,10.699755 9.67479301,10.7181977 C9.84384861,10.7413998 10.2272529,10.8252842 10.4300619,11.1099559 C10.6914345,11.4770247 10.6824913,12.3018883 10.6824913,12.3018883 C10.6824913,12.3018883 10.833372,14.5759894 10.330821,14.8582814 C9.98607456,15.0525244 9.51381515,14.6560068 8.49832761,12.8480295 C7.9790442,11.9220286 7.58669674,10.89846 7.58669674,10.89846 C7.58669674,10.89846 7.51111215,10.7077865 7.37609847,10.6054594 C7.21137023,10.4811201 6.98259704,10.441855 6.98259704,10.441855 L4.55408165,10.457918 C4.55408165,10.457918 4.18914082,10.4683292 4.0549926,10.632231 C3.93671138,10.7773928 4.04604939,11.0784249 4.04604939,11.0784249 C4.04604939,11.0784249 5.94720363,15.6658922 8.10049882,17.9771761 C10.0749297,20.0974891 12.317657,19.9582766 12.317657,19.9582766 Z" id="vk_fill_1" fill="#FFFFFF"></path>
                </g>
            </g>
        </g>
    </g>
</svg>